<svg width="46" height="46" viewBox="0 0 46 46" fill="none" xmlns="http://www.w3.org/2000/svg">
    <rect width="46" height="46" rx="23" fill="#F2EFEF"/>
    <path d="M10.104 30.52V29.032H11.4C11.7733 29.032 12.04 28.952 12.2 28.792C12.3707 28.6427 12.456 28.3867 12.456 28.024V20.504H10.44V19.064H12.456V17.96C12.456 17.0747 12.6747 16.44 13.112 16.056C13.5493 15.672 14.1733 15.48 14.984 15.48H16.92V16.968H15.192C14.8187 16.968 14.552 17.0427 14.392 17.192C14.232 17.3413 14.152 17.6027 14.152 17.976V19.064H16.92V20.504H14.152V28.04C14.152 28.9253 13.9333 29.56 13.496 29.944C13.0587 30.328 12.4293 30.52 11.608 30.52H10.104ZM23.3938 27.096C22.9991 27.096 22.6631 26.968 22.3858 26.712C22.1084 26.4453 21.9698 26.1253 21.9698 25.752C21.9698 25.3787 22.1084 25.064 22.3858 24.808C22.6631 24.552 22.9991 24.424 23.3938 24.424C23.7991 24.424 24.1351 24.552 24.4018 24.808C24.6791 25.064 24.8178 25.3787 24.8178 25.752C24.8178 26.1253 24.6791 26.4453 24.4018 26.712C24.1351 26.968 23.7991 27.096 23.3938 27.096ZM30.0435 27L28.3155 19.064H29.9795L30.9395 24.632L32.0755 19.064H33.8995L35.0355 24.632L35.9955 19.064H37.6595L35.9315 27H34.1875L32.9875 21.272L31.7875 27H30.0435Z" fill="black"/>
</svg>
